<svg xmlns="http://www.w3.org/2000/svg" width="281" height="193" fill="none" viewBox="0 0 281 193">
  <path fill="#E51189" d="m117.403 105.893-94.8-81.485c-4.007-3.638-6.502-2.258-5.544 3.066l8.817 49.05c.958 5.324 5.02 12.654 9.026 16.289l56.512 49.982c1.94-16.727 14.437-30.08 25.989-36.902Zm46.136 0 94.8-81.485c4.006-3.638 6.502-2.258 5.544 3.066l-8.817 49.05c-.958 5.324-5.02 12.654-9.026 16.289l-56.512 49.982c-1.941-16.727-14.437-30.08-25.989-36.902Z"/>
  <path fill="#E9F100" d="M140.001 111C117.356 111 99 129.356 99 152.001 99 174.644 117.357 193 140.001 193 162.644 193 181 174.643 181 152.001 181 129.356 162.644 111 140.001 111Zm0 70.258c-16.134 0-29.258-13.125-29.258-29.257 0-16.133 13.124-29.258 29.258-29.258 16.132 0 29.256 13.125 29.256 29.258 0 16.132-13.124 29.257-29.256 29.257Z"/>
  <path fill="#E1DA00" d="M140.001 130C127.869 130 118 139.869 118 152.001c0 12.13 9.869 21.999 22.001 21.999 12.13 0 21.999-9.869 21.999-21.999 0-12.132-9.869-22.001-21.999-22.001Z"/>
</svg>
