<svg xmlns="http://www.w3.org/2000/svg" width="361" height="194" fill="none" viewBox="0 0 361 194">
  <path fill="#E51189" d="M149.394 112.389 20.847 35.343c-4.577-2.887-6.795-1.095-4.927 3.982l17.2 46.774c1.868 5.076 7.141 11.59 11.718 14.474l85.369 52.671c-.993-16.81 8.995-32.13 19.187-40.855Zm61.989 0 128.546-77.046c4.577-2.887 6.795-1.095 4.927 3.982l-17.201 46.774c-1.867 5.076-7.14 11.59-11.717 14.474l-85.369 52.671c.993-16.81-8.994-32.13-19.186-40.855Z"/>
  <path fill="#B2B2B2" d="M180.001 112C157.356 112 139 130.357 139 153.001 139 175.644 157.357 194 180.001 194 202.644 194 221 175.643 221 153.001 221 130.357 202.644 112 180.001 112Zm0 70.258c-16.134 0-29.259-13.125-29.259-29.257 0-16.133 13.125-29.258 29.259-29.258 16.132 0 29.256 13.125 29.256 29.258 0 16.132-13.124 29.257-29.256 29.257Z"/>
  <path fill="#939393" d="M180.001 131C167.869 131 158 140.869 158 153.001c0 12.13 9.869 21.999 22.001 21.999 12.13 0 21.999-9.869 21.999-21.999 0-12.132-9.869-22.001-21.999-22.001Z"/>
</svg>
