<svg xmlns="http://www.w3.org/2000/svg" width="150" height="145" fill="none" viewBox="0 0 150 145">
  <path fill="#E51189" d="M135.784 8.015c-.902-2.805-3.116-3.194-4.92-.864l-39.55 51.064c10.345 3.407 19.119 9.805 25.501 18.028l25.635-33.052c1.806-2.328 2.546-6.528 1.644-9.333l-8.31-25.843ZM58.288 58.192 18.753 7.15c-1.804-2.33-4.018-1.941-4.92.864L5.524 33.856c-.901 2.805-.162 7.005 1.644 9.333l25.56 32.955c6.406-8.204 15.2-14.576 25.56-17.952Z"/>
  <path fill="#D48A00" d="M75 63c-22.644 0-41 18.356-41 41s18.357 41 41 41c22.644 0 41-18.357 41-41 0-22.644-18.356-41-41-41Zm0 70.258c-16.133 0-29.257-13.125-29.257-29.257 0-16.133 13.124-29.258 29.258-29.258 16.132 0 29.256 13.125 29.256 29.258 0 16.132-13.124 29.257-29.256 29.257Z"/>
  <path fill="#CF7500" d="M75.001 82C62.87 82 53 91.87 53 104.001 53 116.131 62.869 126 75.001 126 87.131 126 97 116.131 97 104.001 97 91.869 87.131 82 75.001 82Z"/>
</svg>
